<svg aria-hidden="true" style="position: absolute; width: 0; height: 0; overflow: hidden;" version="1.1" xmlns="http://www.w3.org/2000/svg" xmlns:xlink="http://www.w3.org/1999/xlink">
<defs>
<symbol id="icon-favorite" viewBox="0 0 32 32">
<path fill="#ff6b08" style="fill: var(--color1, #ff6b08)" d="M16 30.144l-2.24-2.218c-8.32-7.287-13.76-12.198-13.76-18.218 0-4.911 3.84-8.713 8.8-8.713 2.72 0 5.44 1.267 7.2 3.327 1.76-2.059 4.48-3.327 7.2-3.327 4.96 0 8.8 3.802 8.8 8.713 0 6.020-5.44 10.931-13.76 18.218l-2.24 2.218z"></path>
</symbol>
<symbol id="icon-search-2" viewBox="0 0 32 32">
<path fill="none" stroke="#fff" style="stroke: var(--color2, #fff)" stroke-linejoin="round" stroke-linecap="round" stroke-miterlimit="4" stroke-width="2.6667" d="M14.667 25.333c5.891 0 10.667-4.776 10.667-10.667s-4.776-10.667-10.667-10.667c-5.891 0-10.667 4.776-10.667 10.667s4.776 10.667 10.667 10.667z"></path>
<path fill="none" stroke="#fff" style="stroke: var(--color2, #fff)" stroke-linejoin="round" stroke-linecap="round" stroke-miterlimit="4" stroke-width="2.6667" d="M28 28l-5.8-5.8"></path>
</symbol>
<symbol id="icon-film" viewBox="0 0 32 32">
<path fill="none" stroke="#818181" style="stroke: var(--color3, #818181)" stroke-linejoin="round" stroke-linecap="round" stroke-miterlimit="4" stroke-width="2.6667" d="M26.427 2.667h-20.853c-1.605 0-2.907 1.301-2.907 2.907v20.853c0 1.605 1.301 2.907 2.907 2.907h20.853c1.605 0 2.907-1.301 2.907-2.907v-20.853c0-1.605-1.301-2.907-2.907-2.907z"></path>
<path fill="none" stroke="#818181" style="stroke: var(--color3, #818181)" stroke-linejoin="round" stroke-linecap="round" stroke-miterlimit="4" stroke-width="2.6667" d="M9.333 2.667v26.667"></path>
<path fill="none" stroke="#818181" style="stroke: var(--color3, #818181)" stroke-linejoin="round" stroke-linecap="round" stroke-miterlimit="4" stroke-width="2.6667" d="M22.667 2.667v26.667"></path>
<path fill="none" stroke="#818181" style="stroke: var(--color3, #818181)" stroke-linejoin="round" stroke-linecap="round" stroke-miterlimit="4" stroke-width="2.6667" d="M2.667 16h26.667"></path>
<path fill="none" stroke="#818181" style="stroke: var(--color3, #818181)" stroke-linejoin="round" stroke-linecap="round" stroke-miterlimit="4" stroke-width="2.6667" d="M2.667 9.333h6.667"></path>
<path fill="none" stroke="#818181" style="stroke: var(--color3, #818181)" stroke-linejoin="round" stroke-linecap="round" stroke-miterlimit="4" stroke-width="2.6667" d="M2.667 22.667h6.667"></path>
<path fill="none" stroke="#818181" style="stroke: var(--color3, #818181)" stroke-linejoin="round" stroke-linecap="round" stroke-miterlimit="4" stroke-width="2.6667" d="M22.667 22.667h6.667"></path>
<path fill="none" stroke="#818181" style="stroke: var(--color3, #818181)" stroke-linejoin="round" stroke-linecap="round" stroke-miterlimit="4" stroke-width="2.6667" d="M22.667 9.333h6.667"></path>
</symbol>
<symbol id="icon-close-black" viewBox="0 0 32 32"><path d="M26.667 7.303l-1.97-1.97-7.808 7.808-7.808-7.808-1.97 1.97 7.808 7.808-7.808 7.808 1.97 1.97 7.808-7.808 7.808 7.808 1.97-1.97-7.808-7.808 7.808-7.808z"/></symbol>
<symbol id="icon-bender" viewBox="0 0 32 32">
<path fill="#acb7d0" style="fill: var(--color1, #acb7d0)" d="M24.116 12.551l-0.006-0.895c-0.061-3.97-3.296-7.156-7.266-7.156h-2.076c-4.014 0-7.267 3.253-7.267 7.267v17.169c0 1.416 4.154 2.564 10.384 2.564 4.846 0 7.086-0.5 7.086-0.5v-2c0-0.641-1.059-0.5-1.059-0.5v-5.5c0.941-0.145 1.588-0.474 1.588-0.474v-4.205l-1.384-5.77z"></path>
<path fill="#8d6c9f" style="fill: var(--color2, #8d6c9f)" d="M17.885 32c-5.021 0-10.885-0.802-10.885-3.064v-17.169c0-4.282 3.484-7.766 7.766-7.766h2.076c4.218 0 7.701 3.431 7.766 7.648l0.006 0.842 1.372 5.714c0.009 0.038 0.014 0.077 0.014 0.116v4.205c0 0.188-0.105 0.36-0.273 0.446-0.025 0.012-0.538 0.271-1.315 0.444v4.586c0.25 0.029 0.532 0.107 0.745 0.293 0.206 0.18 0.314 0.424 0.314 0.706v2c0 0.235-0.163 0.437-0.391 0.488-0.093 0.020-2.349 0.511-7.194 0.511zM14.767 5c-3.731 0-6.767 3.035-6.767 6.767v17.169c0 0.698 2.985 2.064 9.885 2.064 3.601 0 5.757-0.282 6.586-0.417v-1.552c-0.093-0.039-0.316-0.057-0.495-0.035-0.142 0.017-0.286-0.026-0.394-0.121s-0.17-0.232-0.17-0.375v-5.5c0-0.247 0.18-0.456 0.424-0.494 0.5-0.077 0.912-0.212 1.165-0.309v-3.817l-1.371-5.712c-0.009-0.037-0.013-0.075-0.014-0.114l-0.006-0.895c-0.057-3.67-3.092-6.659-6.767-6.659h-2.077z"></path>
<path fill="#b5c4e0" style="fill: var(--color3, #b5c4e0)" d="M13.018 19.5c-1.109 0-2.518-1.418-2.518-3.166v-3.166c0-1.733 1.39-3.159 3.114-3.166 1.916-0.008 2.534 0.633 5.702 0.633 2.518 0 4.407-0.633 4.407-0.633l1.689 0.85c1.279 0.643 2.088 1.959 2.088 3.398v2.718c0 1.399-1.128 2.534-2.518 2.534h-11.963z"></path>
<path fill="#8d6c9f" style="fill: var(--color2, #8d6c9f)" d="M10.5 16.5c-0.277 0-0.5-0.224-0.5-0.5v-1c0-0.277 0.223-0.5 0.5-0.5s0.5 0.223 0.5 0.5v1c0 0.276-0.223 0.5-0.5 0.5z"></path>
<path fill="#8d6c9f" style="fill: var(--color2, #8d6c9f)" d="M24.982 20h-11.963c-0.807 0-1.651-0.479-2.15-1.221-0.495-0.736-0.415-0.882-0.322-1.052 0.091-0.163 0.261-0.259 0.451-0.259 0.177 0.005 0.351 0.131 0.438 0.288l0.001-0c0.002 0.005 0.006 0.012 0.010 0.020 0.001 0.002 0.002 0.003 0.002 0.005 0.041 0.082 0.152 0.297 0.248 0.441 0.361 0.536 0.938 0.779 1.321 0.779h11.963c1.113 0 2.018-0.912 2.018-2.033v-2.719c0-1.258-0.695-2.389-1.813-2.951l-1.51-0.76c-0.566 0.165-2.241 0.596-4.363 0.596-1.825 0-2.822-0.206-3.7-0.386-0.649-0.134-1.213-0.265-1.999-0.246-1.392 0.006-2.538 1.115-2.611 2.526-0.014 0.276-0.253 0.483-0.525 0.473-0.276-0.014-0.488-0.249-0.473-0.525 0.1-1.94 1.684-3.466 3.607-3.474 0.896-0.011 1.531 0.128 2.205 0.267 0.832 0.171 1.775 0.366 3.499 0.366 2.399 0 4.23-0.601 4.248-0.607 0.127-0.041 0.265-0.031 0.384 0.027l1.689 0.85c1.458 0.733 2.364 2.207 2.364 3.845v2.719c0 1.672-1.354 3.033-3.018 3.033z"></path>
<path fill="#f9e3ae" style="fill: var(--color4, #f9e3ae)" d="M13.12 28.723c0.009 0.002 0.017 0.003 0.025 0.005 1.386 0.172 2.992 0.273 4.78 0.273 3.183 0 5.136-0.285 6.075-0.47v-5.53c-1.082 0.168-2.843 0.352-5.4 0.352-1.775 0-3.371-0.099-4.75-0.268-0.008 0-0.015 0-0.023 0 0 0-0.155-0.006-0.268-0.006-1.69 0-3.059 1.273-3.059 2.843 0 1.431 1.14 2.604 2.62 2.802z"></path>
<path fill="#8d6c9f" style="fill: var(--color2, #8d6c9f)" d="M17.925 29.5c-1.744 0-3.373-0.093-4.843-0.276l-0.041-0.006c-1.735-0.238-3.041-1.654-3.041-3.296 0-1.843 1.596-3.343 3.559-3.343 0.123 0 0.289 0.007 0.289 0.007l0.063 0.003c1.426 0.176 3.004 0.265 4.689 0.265 2.556 0 4.306-0.188 5.323-0.346l0.577-0.090v6.524l-0.403 0.079c-0.904 0.179-2.909 0.48-6.172 0.48zM13.225 28.234c1.424 0.176 3.005 0.266 4.7 0.266 2.756 0 4.574-0.217 5.575-0.387v-4.537c-1.087 0.14-2.709 0.276-4.9 0.276-1.717 0-3.328-0.091-4.787-0.27-0.063-0.002-0.171-0.006-0.254-0.006-1.411 0-2.559 1.052-2.559 2.343 0 1.148 0.94 2.14 2.186 2.307l0.039 0.006z"></path>
<path fill="#acb7d0" style="fill: var(--color1, #acb7d0)" d="M25.5 13c1.105 0 2 0.97 2 2.166v1.585c0 1.518-1.043 2.748-2.329 2.748h-9.671c-1.104 0-2-0.97-2-2.166v-2.166c0-1.197 0.896-2.167 2-2.167h10z"></path>
<path fill="#8d6c9f" style="fill: var(--color2, #8d6c9f)" d="M25.171 20h-9.671c-1.379 0-2.5-1.197-2.5-2.666v-2.167c0-1.47 1.121-2.667 2.5-2.667h10c1.378 0 2.5 1.197 2.5 2.666v1.586c0 1.791-1.27 3.247-2.829 3.247zM15.5 13.5c-0.827 0-1.5 0.748-1.5 1.666v2.167c0 0.919 0.673 1.666 1.5 1.666h9.671c1.009 0 1.829-1.009 1.829-2.247v-1.586c0-0.919-0.673-1.667-1.5-1.667h-10z"></path>
<path fill="#ffeb9b" style="fill: var(--color5, #ffeb9b)" d="M25 16.25c0 1.795-1.455 3.25-3.25 3.25s-3.25-1.455-3.25-3.25c0-1.795 1.455-3.25 3.25-3.25s3.25 1.455 3.25 3.25z"></path>
<path fill="#8d6c9f" style="fill: var(--color2, #8d6c9f)" d="M21.75 20c-2.068 0-3.75-1.682-3.75-3.75s1.682-3.75 3.75-3.75 3.75 1.682 3.75 3.75-1.682 3.75-3.75 3.75zM21.75 13.5c-1.516 0-2.75 1.234-2.75 2.75s1.234 2.75 2.75 2.75 2.75-1.234 2.75-2.75-1.234-2.75-2.75-2.75z"></path>
<path fill="#ffeb9b" style="fill: var(--color5, #ffeb9b)" d="M20 16.25c0 1.795-1.455 3.25-3.25 3.25s-3.25-1.455-3.25-3.25c0-1.795 1.455-3.25 3.25-3.25s3.25 1.455 3.25 3.25z"></path>
<path fill="#8d6c9f" style="fill: var(--color2, #8d6c9f)" d="M16.75 20c-2.068 0-3.75-1.682-3.75-3.75s1.682-3.75 3.75-3.75 3.75 1.682 3.75 3.75-1.682 3.75-3.75 3.75zM16.75 13.5c-1.516 0-2.75 1.234-2.75 2.75s1.234 2.75 2.75 2.75 2.75-1.234 2.75-2.75-1.234-2.75-2.75-2.75z"></path>
<path fill="#8d6c9f" style="fill: var(--color2, #8d6c9f)" d="M17.5 25c-0.276 0-0.5 0.224-0.5 0.5v1c0 0.276 0.224 0.5 0.5 0.5s0.5-0.224 0.5-0.5v-1c0-0.276-0.224-0.5-0.5-0.5zM15 27c0.276 0 0.5-0.224 0.5-0.5v-1c0-0.276-0.224-0.5-0.5-0.5s-0.5 0.224-0.5 0.5v1c0 0.276 0.224 0.5 0.5 0.5zM12.5 27c0.276 0 0.5-0.224 0.5-0.5v-1c0-0.276-0.224-0.5-0.5-0.5s-0.5 0.224-0.5 0.5v1c0 0.276 0.224 0.5 0.5 0.5zM22.5 27c0.276 0 0.5-0.224 0.5-0.5v-1c0-0.276-0.224-0.5-0.5-0.5s-0.5 0.224-0.5 0.5v1c0 0.276 0.224 0.5 0.5 0.5zM20 25c-0.276 0-0.5 0.224-0.5 0.5v1c0 0.276 0.224 0.5 0.5 0.5s0.5-0.224 0.5-0.5v-1c0-0.276-0.224-0.5-0.5-0.5z"></path>
<path fill="#8d6c9f" style="fill: var(--color2, #8d6c9f)" d="M15.723 16.801h-0.643c-0.178 0-0.322-0.144-0.322-0.322v-0.643c0-0.178 0.144-0.322 0.322-0.322h0.643c0.178 0 0.322 0.144 0.322 0.322v0.643c-0 0.178-0.145 0.322-0.322 0.322z"></path>
<path fill="#8d6c9f" style="fill: var(--color2, #8d6c9f)" d="M22.015 16.801h-0.643c-0.177 0-0.322-0.144-0.322-0.322v-0.643c0-0.178 0.144-0.322 0.322-0.322h0.643c0.177 0 0.322 0.144 0.322 0.322v0.643c-0 0.178-0.145 0.322-0.322 0.322z"></path>
<path fill="#ced9ed" style="fill: var(--color6, #ced9ed)" d="M14.5 0.5h2.5v2h-2.5v-2z"></path>
<path fill="#8d6c9f" style="fill: var(--color2, #8d6c9f)" d="M17 3h-2.5c-0.277 0-0.5-0.224-0.5-0.5v-2c0-0.277 0.223-0.5 0.5-0.5h2.5c0.276 0 0.5 0.224 0.5 0.5v2c0 0.276-0.224 0.5-0.5 0.5zM15 2h1.5v-1h-1.5v1z"></path>
<path fill="#ced9ed" style="fill: var(--color6, #ced9ed)" d="M15.749 5.5c-1.358 0-2.124-0.214-2.49-0.362-0.162-0.065-0.281-0.284-0.255-0.524 0.129-1.198 0.845-2.114 1.709-2.114h2.075c0.864 0 1.581 0.916 1.709 2.114 0.026 0.239-0.094 0.459-0.256 0.524-0.367 0.148-1.134 0.362-2.492 0.362z"></path>
<path fill="#8d6c9f" style="fill: var(--color2, #8d6c9f)" d="M15.749 6c-1.399 0-2.228-0.217-2.678-0.399-0.375-0.151-0.614-0.588-0.566-1.040 0.159-1.484 1.087-2.561 2.206-2.561h2.075c1.119 0 2.047 1.077 2.206 2.561 0.049 0.452-0.191 0.89-0.567 1.042-0.45 0.181-1.279 0.398-2.678 0.398zM13.502 4.696c0.328 0.123 1.020 0.304 2.248 0.304s1.921-0.181 2.249-0.304c0.002-0.008 0.002-0.019 0.001-0.029-0.1-0.934-0.633-1.667-1.212-1.667h-2.075c-0.579 0-1.112 0.732-1.212 1.667-0.001 0.011-0.001 0.021 0.001 0.029zM18.053 4.675c0 0-0 0 0 0v0zM13.446 4.675v0 0z"></path>
</symbol>
<symbol id="icon-favorite" viewBox="0 0 32 32">
<path fill="#ff6b08" style="fill: var(--color7, #ff6b08)" d="M16 30.144l-2.24-2.218c-8.32-7.287-13.76-12.198-13.76-18.218 0-4.911 3.84-8.713 8.8-8.713 2.72 0 5.44 1.267 7.2 3.327 1.76-2.059 4.48-3.327 7.2-3.327 4.96 0 8.8 3.802 8.8 8.713 0 6.020-5.44 10.931-13.76 18.218l-2.24 2.218z"></path>
</symbol>
</defs>
</svg>
